<?xml version="1.0" encoding="iso-8859-1"?>
<!-- Generator: Adobe Illustrator 19.0.0, SVG Export Plug-In . SVG Version: 6.00 Build 0)  -->
<svg version="1.1" id="Layer_1" xmlns="http://www.w3.org/2000/svg" xmlns:xlink="http://www.w3.org/1999/xlink" x="0px" y="0px"
	 viewBox="0 0 512 512" style="enable-background:new 0 0 512 512;" xml:space="preserve">
<path style="fill:#FFCD54;" d="M0,256.006C0,397.402,114.606,512.004,255.996,512C397.394,512.004,512,397.402,512,256.006
	C512.009,114.61,397.394,0,255.996,0C114.606,0,0,114.614,0,256.006z"/>
<path style="fill:#F4BA41;" d="M512,256.005c0.001-6.45-0.318-12.822-0.787-19.155c-0.243-0.241-131.103-131.273-131.689-131.687
	c-1.159-1.63-2.971-2.763-5.124-2.763H137.6c-3.535,0-6.4,2.863-6.4,6.4c0,2.156,1.134,3.966,2.765,5.127
	c0.415,0.583,16.412,16.435,16.435,16.467V166.4h-12.8c-3.535,0-6.4,2.863-6.4,6.4c0,2.156,1.134,3.966,2.765,5.127
	c0.415,0.583,16.412,16.435,16.435,16.467V332.8h-12.8c-3.535,0-6.4,2.862-6.4,6.401c0,2.154,1.133,3.964,2.763,5.122
	c0.416,0.586,16.413,16.438,16.437,16.471V396.8h-12.8c-3.535,0-6.4,2.862-6.4,6.401c0,2.154,1.133,3.964,2.763,5.122
	c0.416,0.586,0.903,1.075,1.489,1.491c0.416,0.585,100.609,100.778,101.194,101.194c0.058,0.081,0.145,0.128,0.206,0.206
	c6.329,0.468,12.698,0.786,19.146,0.786C397.394,512.004,512,397.401,512,256.005z"/>
<g>
	<path style="fill:#F4F6F9;" d="M374.4,179.2c3.534,0,6.4-2.863,6.4-6.4c0-3.537-2.866-6.4-6.4-6.4h-12.8v-51.2h12.8
		c3.534,0,6.4-2.863,6.4-6.4c0-3.537-2.866-6.4-6.4-6.4H137.6c-3.534,0-6.4,2.863-6.4,6.4c0,3.537,2.866,6.4,6.4,6.4h12.8v51.2
		h-12.8c-3.534,0-6.4,2.863-6.4,6.4c0,3.537,2.866,6.4,6.4,6.4h12.8v153.6h-12.8c-3.534,0-6.4,2.863-6.4,6.4s2.866,6.4,6.4,6.4h12.8
		v51.2h-12.8c-3.534,0-6.4,2.863-6.4,6.4s2.866,6.4,6.4,6.4h236.8c3.534,0,6.4-2.863,6.4-6.4s-2.866-6.4-6.4-6.4h-12.8v-51.2h12.8
		c3.534,0,6.4-2.863,6.4-6.4s-2.866-6.4-6.4-6.4h-12.8V179.2H374.4z M163.2,115.2h185.6v51.2H163.2V115.2z M348.8,396.8H163.2v-51.2
		h185.6V396.8z M348.8,332.8H163.2V179.2h185.6V332.8z"/>
	<path style="fill:#F4F6F9;" d="M252.8,300.8c21.175,0,38.4-17.225,38.4-38.4c0-28.194-32.51-60.769-33.893-62.144
		c-2.484-2.463-6.491-2.475-8.988-0.025c-1.385,1.356-33.919,33.581-33.919,62.169C214.4,283.575,231.625,300.8,252.8,300.8z
		 M252.778,214.112c9.851,11.038,25.622,32.126,25.622,48.288c0,14.118-11.485,25.6-25.6,25.6s-25.6-11.482-25.6-25.6
		C227.2,246.006,242.934,225.056,252.778,214.112z"/>
</g>
<g>
</g>
<g>
</g>
<g>
</g>
<g>
</g>
<g>
</g>
<g>
</g>
<g>
</g>
<g>
</g>
<g>
</g>
<g>
</g>
<g>
</g>
<g>
</g>
<g>
</g>
<g>
</g>
<g>
</g>
</svg>
