<?xml version="1.0" encoding="iso-8859-1"?>
<!-- Generator: Adobe Illustrator 19.0.0, SVG Export Plug-In . SVG Version: 6.00 Build 0)  -->
<svg version="1.1" id="Layer_1" xmlns="http://www.w3.org/2000/svg" xmlns:xlink="http://www.w3.org/1999/xlink" x="0px" y="0px"
	 viewBox="0 0 512.001 512.001" style="enable-background:new 0 0 512.001 512.001;" xml:space="preserve">
<path style="fill:#47CEAC;" d="M512.001,256.006c0,141.395-114.606,255.998-255.996,255.994
	C114.606,512.004,0.001,397.402,0.001,256.006C-0.007,114.61,114.606,0,256.005,0C397.395,0,512.001,114.614,512.001,256.006z"/>
<path style="fill:#36BB9A;" d="M505.477,313.329c-0.423-0.464-201.725-201.741-202.229-202.231
	c-4.741-5.429-11.509-8.699-19.431-8.699H159.262c-15.738,0.001-28.062,12.761-28.062,29.047V403.2c0,2.154,1.133,3.966,2.764,5.125
	c0.416,0.585,102.097,102.267,102.683,102.683c0.058,0.081,0.145,0.128,0.206,0.206c6.33,0.468,12.703,0.787,19.152,0.787
	C377.677,512.003,479.441,427.107,505.477,313.329z"/>
<g>
	<path style="fill:#F4F6F9;" d="M284.801,134.4h-128c-3.534,0-6.4,2.866-6.4,6.4v89.6c0,3.534,2.866,6.4,6.4,6.4h128
		c3.534,0,6.4-2.866,6.4-6.4v-89.6C291.201,137.266,288.334,134.4,284.801,134.4z M278.401,224h-115.2v-76.8h115.2V224z"/>
	<path style="fill:#F4F6F9;" d="M378.925,213.075l-25.6-25.6c-2.5-2.5-6.55-2.5-9.05,0c-2.499,2.5-2.5,6.55,0,9.05l23.725,23.725
		v89.54c0,5.916-4.037,10.209-9.6,10.209c-5.563,0-9.6-4.293-9.6-10.209v-83.044c0-10.097-10.147-15.547-19.694-15.547h-18.706
		v-79.754c0-16.83-11.181-29.045-26.585-29.045H159.263c-15.738,0-28.063,12.759-28.063,29.046V403.2c0,3.534,2.866,6.4,6.4,6.4
		h166.4c3.534,0,6.4-2.866,6.4-6.4V224h18.706c3.647,0,6.894,1.537,6.894,2.747v83.044c0,12.904,9.841,23.009,22.4,23.009
		c12.559,0,22.4-10.107,22.4-23.009V217.6C380.801,215.963,380.176,214.325,378.925,213.075z M297.601,396.8h-153.6V131.446
		c0-9.263,6.562-16.246,15.263-16.246h124.554c9.522,0,13.785,8.159,13.785,16.246V396.8H297.601z"/>
	<path style="fill:#F4F6F9;" d="M226.407,259.312c-2.253-4.094-8.969-4.084-11.213,0.003c-2.907,5.281-8.181,10.972-13.765,16.997
		c-11.919,12.865-25.428,27.443-25.428,47.178c0,22.779,20.097,41.31,44.8,41.31s44.8-18.531,44.8-41.31
		c0-19.738-13.513-34.319-25.431-47.184C234.585,270.285,229.313,264.594,226.407,259.312z M220.801,352
		c-17.644,0-32-12.79-32-28.51c0-14.716,11.194-26.794,22.019-38.478c3.559-3.841,7.003-7.556,9.981-11.3
		c2.981,3.741,6.422,7.456,9.978,11.294c10.829,11.684,22.022,23.766,22.022,38.484C252.801,339.21,238.444,352,220.801,352z"/>
</g>
<g>
</g>
<g>
</g>
<g>
</g>
<g>
</g>
<g>
</g>
<g>
</g>
<g>
</g>
<g>
</g>
<g>
</g>
<g>
</g>
<g>
</g>
<g>
</g>
<g>
</g>
<g>
</g>
<g>
</g>
</svg>
