<?xml version="1.0" encoding="iso-8859-1"?>
<!-- Generator: Adobe Illustrator 19.0.0, SVG Export Plug-In . SVG Version: 6.00 Build 0)  -->
<svg version="1.1" id="Layer_1" xmlns="http://www.w3.org/2000/svg" xmlns:xlink="http://www.w3.org/1999/xlink" x="0px" y="0px"
	 viewBox="0 0 512 512" style="enable-background:new 0 0 512 512;" xml:space="preserve">
<path style="fill:#EB86BF;" d="M512,256.006C512,397.402,397.394,512.004,256.004,512C114.606,512.004,0,397.402,0,256.006
	C-0.007,114.61,114.606,0,256.004,0C397.394,0,512,114.614,512,256.006z"/>
<path style="fill:#D670AD;" d="M508.784,296.49l-0.691-0.797c-0.172-0.198-0.407-0.288-0.596-0.459l-0.892-1.03
	c-0.172-0.198-138.399-138.399-138.399-138.399c-2.125-2.447-5.641-2.778-8.276-1.068c-0.177-0.175-0.394-0.306-0.576-0.476
	c-0.482-0.513-41.151-41.182-41.664-41.664c-5.843-6.238-14.089-10.197-23.29-10.197h-128c-17.644,0-32,14.355-32,32v249.156
	c0,2.426,0.942,3.769,2.308,4.741c0.341,0.634,0.91,1.075,1.487,1.487c0.342,0.636,6.524,6.698,6.851,7.015H121.6
	c-3.538,0-6.4,2.866-6.4,6.401c0,2.153,1.131,3.964,2.761,5.122c0.417,0.586,99.123,99.292,99.709,99.709
	c0.354,0.497,0.791,0.892,1.263,1.263c12.108,1.756,24.477,2.705,37.072,2.705C383.615,512.002,489.375,418.639,508.784,296.49z"/>
<g>
	<path style="fill:#F4F6F9;" d="M253.593,298.665l-16.058-4.531l9.876-33.947c0.434-1.493-0.242-3.076-1.623-3.808
		c-1.369-0.711-3.085-0.403-4.094,0.783l-36.114,42.471c-0.725,0.852-0.964,2.006-0.635,3.076c0.326,1.065,1.178,1.891,2.259,2.192
		l15.844,4.48l-14.019,38.215c-0.547,1.493,0.058,3.153,1.444,3.955c0.521,0.301,1.097,0.448,1.666,0.448
		c0.944,0,1.87-0.398,2.522-1.147l40.544-46.901c0.734-0.851,0.979-2.013,0.653-3.083
		C255.534,299.798,254.679,298.965,253.593,298.665z"/>
	<path style="fill:#F4F6F9;" d="M288,134.4H172.8c-3.537,0-6.4,2.866-6.4,6.4V224c0,3.534,2.863,6.4,6.4,6.4H288
		c3.537,0,6.4-2.866,6.4-6.4v-83.2C294.4,137.266,291.537,134.4,288,134.4z M281.6,217.6H179.2v-70.4h102.4V217.6z"/>
	<path style="fill:#F4F6F9;" d="M339.2,396.8H121.6c-3.537,0-6.4,2.866-6.4,6.4c0,3.534,2.863,6.4,6.4,6.4h217.6
		c3.537,0,6.4-2.866,6.4-6.4C345.6,399.666,342.737,396.8,339.2,396.8z"/>
	<path style="fill:#F4F6F9;" d="M386.857,177.318l-18.65-21.513c-2.325-2.675-6.363-2.95-9.031-0.641
		c-2.669,2.313-2.956,6.356-0.644,9.028l18.65,21.509c4.356,5.029,6.819,8.098,6.819,12.698h-12.8c-7.056,0-12.8,5.741-12.8,12.8
		v25.6c0,7.059,5.744,12.8,12.8,12.8H384v96c0,3.529-2.868,6.4-6.4,6.4h-14.156c-3.725,0-5.044-3.446-5.044-6.4v-83.547
		c0-11.278-10.631-18.853-20.556-18.853H326.4V134.4c0-17.644-14.356-32-32-32h-128c-17.644,0-32,14.356-32,32v249.156
		c0,6.471,5.2,6.562,13.806,6.713c4.669,0.081,11.113,0.131,18.194,0.131h128c7.082,0,13.525-0.05,18.194-0.131
		c8.606-0.15,13.806-0.241,13.806-6.713V256h11.444c3.913,0,7.756,2.997,7.756,6.053V345.6c0,10.947,7.668,19.2,17.844,19.2H377.6
		c10.588,0,19.2-8.612,19.2-19.2V198.4C396.8,188.803,391.519,182.703,386.857,177.318z M313.6,377.446
		c-4.206,0.084-10.706,0.154-19.2,0.154h-128c-8.494,0-14.994-0.068-19.2-0.154V134.4c0-10.588,8.612-19.2,19.2-19.2h128
		c10.588,0,19.2,8.612,19.2,19.2V377.446z M371.2,236.8v-25.6H384v25.6H371.2z"/>
</g>
<g>
</g>
<g>
</g>
<g>
</g>
<g>
</g>
<g>
</g>
<g>
</g>
<g>
</g>
<g>
</g>
<g>
</g>
<g>
</g>
<g>
</g>
<g>
</g>
<g>
</g>
<g>
</g>
<g>
</g>
</svg>
