<?xml version="1.0" encoding="iso-8859-1"?>
<!-- Generator: Adobe Illustrator 19.0.0, SVG Export Plug-In . SVG Version: 6.00 Build 0)  -->
<svg version="1.1" id="Layer_1" xmlns="http://www.w3.org/2000/svg" xmlns:xlink="http://www.w3.org/1999/xlink" x="0px" y="0px"
	 viewBox="0 0 512 512" style="enable-background:new 0 0 512 512;" xml:space="preserve">
<path style="fill:#4FC0E8;" d="M0,256.006C0,397.402,114.606,512.004,255.996,512C397.394,512.004,512,397.402,512,256.006
	C512.009,114.61,397.394,0,255.996,0C114.606,0,0,114.614,0,256.006z"/>
<path style="fill:#3DAED9;" d="M512,256.005c0-9.685-0.586-19.229-1.633-28.636c-0.314-0.324-117.999-118.054-118.526-118.527
	c-3.518-3.923-8.569-6.443-14.241-6.443h-82.181c-8.464,0-20.219,4.199-26.426,9.306l-23.069,16.515
	c-0.133-0.112-0.288-0.19-0.43-0.289c-0.415-0.586-15.783-15.954-16.368-16.37c-1.161-1.63-2.97-2.763-5.126-2.763h-70.4
	c-3.538,0-6.4,2.862-6.4,6.401v38.399c0,1.951,0.916,3.635,2.289,4.807c-1.414,2.777-2.289,5.87-2.289,9.193V390.4
	c0,5.67,2.518,10.722,6.442,14.24c0.473,0.527,106.626,106.681,107.154,107.154c0.028,0.03,0.055,0.054,0.083,0.084
	C400.014,509.268,512,395.763,512,256.005z"/>
<g>
	<path style="fill:#F4F6F9;" d="M377.6,102.4h-82.181c-8.463,0-20.219,4.201-26.425,9.307L230.4,139.338V115.2
		c0-3.537-2.863-6.4-6.4-6.4h-70.4c-3.537,0-6.4,2.863-6.4,6.4v38.4c0,1.95,0.917,3.633,2.29,4.807
		c-1.414,2.775-2.29,5.87-2.29,9.193v222.8c0,10.588,8.612,19.2,19.2,19.2h211.2c10.588,0,19.2-8.612,19.2-19.2V121.6
		C396.8,111.012,388.188,102.4,377.6,102.4z M160,121.6h57.6v25.6H160V121.6z M384,390.4c0,3.532-2.868,6.4-6.4,6.4H166.4
		c-3.532,0-6.4-2.868-6.4-6.4V167.6c0-4.194,3.406-7.6,7.6-7.6h49.994c3.6,0,5.082,0.037,5.7,0.057
		c0.238,0.001,0.448-0.043,0.677-0.057H224c0.007,0,0.013-0.004,0.02-0.004c0.809-0.053,1.564-0.197,2.25-0.454
		c0.093-0.036,0.192-0.047,0.283-0.086c0.656-0.279,1.23-0.691,1.751-1.18c0.148-0.138,0.276-0.281,0.411-0.431
		c0.124-0.141,0.27-0.246,0.384-0.401c0.118-0.156,0.231-0.306,0.332-0.45c0.7-1.044,2.525-2.806,4.682-4.588l42.662-30.544
		c4.332-3.55,13.044-6.662,18.644-6.662H377.6c3.532,0,6.4,2.868,6.4,6.4V390.4z"/>
	<path style="fill:#F4F6F9;" d="M358.4,134.4h-64c-3.537,0-6.4,2.863-6.4,6.4v25.6c0,3.537,2.863,6.4,6.4,6.4h64
		c3.537,0,6.4-2.863,6.4-6.4v-25.6C364.8,137.263,361.937,134.4,358.4,134.4z M352,160h-51.2v-12.8H352V160z"/>
</g>
<g>
</g>
<g>
</g>
<g>
</g>
<g>
</g>
<g>
</g>
<g>
</g>
<g>
</g>
<g>
</g>
<g>
</g>
<g>
</g>
<g>
</g>
<g>
</g>
<g>
</g>
<g>
</g>
<g>
</g>
</svg>
