<?xml version="1.0" encoding="utf-8"?>
<!-- Generator: Adobe Illustrator 19.2.1, SVG Export Plug-In . SVG Version: 6.00 Build 0)  -->
<svg version="1.1" id="Layer_1" xmlns="http://www.w3.org/2000/svg" xmlns:xlink="http://www.w3.org/1999/xlink" x="0px" y="0px"
	 viewBox="0 0 1835.9 795.3" style="enable-background:new 0 0 1835.9 795.3;" xml:space="preserve">
<style type="text/css">
	.st0{fill:#A0C9D3;}
	.st1{fill:none;stroke:#689BA9;stroke-width:8;stroke-linecap:round;stroke-linejoin:round;stroke-miterlimit:10;}
	.st2{fill:#A1C8D3;}
	.st3{fill:none;stroke:#689BA9;stroke-width:16;stroke-linecap:round;stroke-linejoin:round;stroke-miterlimit:10;}
	.st4{fill:#689BA9;}
	.st5{fill:#38A587;}
	.st6{fill:#FFFFFF;}
	.st7{fill:none;stroke:#689BA9;stroke-width:8;stroke-linejoin:round;stroke-miterlimit:10;}
	.st8{fill:none;}
	.st9{fill:none;stroke:#689BA9;stroke-width:8;stroke-miterlimit:10;}
	.st10{fill:none;stroke:#689BA9;stroke-width:4;stroke-linecap:round;stroke-linejoin:round;stroke-miterlimit:10;}
	.st11{fill:none;stroke:#689BA9;stroke-width:7;stroke-linecap:round;stroke-linejoin:round;stroke-miterlimit:10;}
	.st12{fill:none;stroke:#38A587;stroke-width:6;stroke-linecap:round;stroke-linejoin:round;stroke-miterlimit:10;}
	.st13{fill:none;stroke:#000000;stroke-width:31;stroke-linecap:round;stroke-linejoin:round;stroke-miterlimit:10;}
	.st14{fill:none;stroke:#000000;stroke-width:10.8582;stroke-linejoin:round;stroke-miterlimit:10;}
	.st15{stroke:#000000;stroke-width:15.0341;stroke-linecap:round;stroke-linejoin:round;stroke-miterlimit:10;}
	.st16{fill:#FFFFFF;stroke:#000000;stroke-width:14;stroke-miterlimit:10;}
	.st17{fill:#FFFFFF;stroke:#000000;stroke-width:15.8919;stroke-linecap:round;stroke-linejoin:round;stroke-miterlimit:10;}
	.st18{fill:#A0C9D3;stroke:#000000;stroke-width:6;stroke-miterlimit:10;}
	.st19{fill:#416F7F;}
	.st20{fill:none;stroke:#231F20;stroke-width:8.6898;stroke-miterlimit:10;}
	.st21{fill:none;stroke:#000000;stroke-width:10.7484;stroke-linecap:round;stroke-linejoin:round;stroke-miterlimit:10;}
	.st22{fill:#FFFFFF;stroke:#000000;stroke-width:6.3272;stroke-miterlimit:10;}
	.st23{fill:#FFFFFF;stroke:#000000;stroke-width:6.5917;stroke-linecap:round;stroke-miterlimit:10;}
	.st24{fill:#426F7F;stroke:#000000;stroke-width:7.6397;stroke-linecap:round;stroke-miterlimit:10;}
	.st25{fill:none;stroke:#000000;stroke-width:7.6397;stroke-linecap:round;stroke-miterlimit:10;}
	.st26{fill:#FFFFFF;stroke:#000000;stroke-width:7;stroke-linecap:round;stroke-miterlimit:10;}
	.st27{fill:#426F7F;}
	.st28{fill:none;stroke:#000000;stroke-width:6.7563;stroke-miterlimit:10;}
	.st29{fill:none;stroke:#000000;stroke-width:6.5917;stroke-miterlimit:10;}
	.st30{stroke:#000000;stroke-width:6.7563;stroke-miterlimit:10;}
	.st31{fill:none;stroke:#000000;stroke-width:27.546;stroke-miterlimit:10;}
	.st32{stroke:#000000;stroke-width:18;stroke-miterlimit:10;}
	.st33{fill:none;stroke:#000000;stroke-width:18;stroke-miterlimit:10;}
	.st34{fill:#FFFFFF;stroke:#000000;stroke-width:16;stroke-miterlimit:10;}
	.st35{fill:#FFFFFF;stroke:#000000;stroke-width:21.2271;stroke-miterlimit:10;}
	.st36{fill:#A0C9D3;stroke:#000000;stroke-width:8;stroke-linejoin:bevel;stroke-miterlimit:10;}
	.st37{fill:#A0C9D3;stroke:#000000;stroke-width:10;stroke-miterlimit:10;}
</style>
<g>
	<polyline class="st0" points="1199.4,152.3 1250.4,152.3 1250.4,164.3 1211.8,164.3 1244.4,164.3 1244.4,239.3 	"/>
	<polyline class="st1" points="1199.4,152.3 1250.4,152.3 1250.4,164.3 1211.8,164.3 1244.4,164.3 1244.4,239.3 	"/>
	<polygon class="st2" points="571.7,320.9 570.5,490.1 518.6,521.3 517.9,714.9 1284.7,711.5 1286,518.6 1260.1,451.1 1262.2,290.9 
		1065.5,152.6 768,312.7 	"/>
	<polyline class="st3" points="503.2,522.7 643.8,439.7 796.8,533.3 1295.4,533.3 	"/>
	<polyline class="st2" points="1283.4,533.3 1283.4,713.3 774.4,713.3 	"/>
	<polyline class="st3" points="1283.4,533.3 1283.4,713.3 774.4,713.3 	"/>
	<line class="st3" x1="1259.4" y1="455.3" x2="1259.4" y2="293.3"/>
	<line class="st3" x1="1038.4" y1="299.3" x2="1038.4" y2="455.3"/>
	<polyline class="st4" points="648.4,437.3 798.4,437.3 798.4,446.7 1038.4,446.5 1038.4,455.3 1259.6,455.3 1303.1,533.3 
		798.4,533.3 	"/>
	<polyline class="st3" points="648.4,437.3 798.4,437.3 798.4,446.7 1038.4,446.5 1038.4,455.3 1259.6,455.3 1303.1,533.3 
		798.4,533.3 	"/>
	<path class="st5" d="M798.4,443.6v-114V443.6z"/>
	<line class="st3" x1="798.4" y1="329.3" x2="798.4" y2="443.3"/>
	<path class="st6" d="M609,263.6c-4-9-13.1-18.4-23.6-18.4c-13.6,0-24.6,8.9-25.6,22.2c-2.8-1-5.9-2.3-9.3-2.3
		c-10.2,0-18.7,4.7-20.7,11.4c-1.6-0.1-3.3,6.1-5.1,6.1c-12.6,0-22.7,16.8-22.7,16.8h107C609,281.3,609.5,263.6,609,263.6"/>
	<polyline class="st4" points="1134,223.4 1040.1,161.8 796.7,323.3 559.1,323.3 621.8,215.3 650.4,215.3 694.6,143.3 1200.9,143.3 
		1274.6,298.4 1152.6,210.8 1025,302.7 	"/>
	<polyline class="st3" points="1134,223.4 1040.1,161.8 796.7,323.3 559.1,323.3 621.8,215.3 650.4,215.3 694.6,143.3 1200.9,143.3 
		1274.6,298.4 1152.6,210.8 1025,302.7 	"/>
	<rect x="1071.4" y="560.3" class="st0" width="167" height="138"/>
	<rect x="1071.4" y="560.3" class="st1" width="164" height="138"/>
	<polyline class="st2" points="516.4,521.3 516.4,713.3 768.4,713.3 768.4,521.3 	"/>
	<polyline class="st3" points="516.4,521.3 516.4,713.3 768.4,713.3 768.4,521.3 	"/>
	<rect x="537.4" y="596.3" class="st0" width="198" height="120"/>
	<rect x="537.4" y="596.3" class="st1" width="198" height="120"/>
	<line class="st3" x1="576.4" y1="329.3" x2="576.4" y2="479.3"/>
	<rect x="891.4" y="332.3" class="st6" width="60" height="84"/>
	<rect x="891.4" y="332.3" class="st1" width="60" height="84"/>
	<line class="st7" x1="921.4" y1="329.3" x2="921.4" y2="413.3"/>
	<line class="st1" x1="894.4" y1="374.3" x2="948.4" y2="374.3"/>
	<rect x="705.4" y="362.3" class="st6" width="36" height="48"/>
	<rect x="705.4" y="362.3" class="st1" width="36" height="48"/>
	<line class="st1" x1="738.4" y1="386.3" x2="708.4" y2="386.3"/>
	<rect x="843.4" y="602.3" class="st0" width="180" height="84"/>
	<rect x="843.4" y="602.3" class="st1" width="180" height="84"/>
	<rect x="849.4" y="608.3" class="st6" width="156" height="78"/>
	<rect x="849.4" y="608.3" class="st1" width="156" height="78"/>
	<line class="st8" x1="903.4" y1="599.3" x2="903.4" y2="683.3"/>
	<line class="st7" x1="903.4" y1="599.3" x2="903.4" y2="683.3"/>
	<line class="st8" x1="969.4" y1="683.3" x2="969.4" y2="599.3"/>
	<line class="st7" x1="969.4" y1="683.3" x2="969.4" y2="599.3"/>
	<path class="st0" d="M829.3,620.3c0-24,31.6-51.4,106.5-51.4c75.6,0,106.5,27.4,106.5,51.4H829.3z"/>
	<path class="st9" d="M829.3,620.3c0-24,31.6-51.4,106.5-51.4c75.6,0,106.5,27.4,106.5,51.4H829.3z"/>
	<rect x="561.4" y="608.3" class="st0" width="42" height="18"/>
	<rect x="561.4" y="608.3" class="st1" width="42" height="18"/>
	<rect x="609.4" y="608.3" class="st0" width="60" height="18"/>
	<rect x="609.4" y="608.3" class="st1" width="60" height="18"/>
	<rect x="681.4" y="608.3" class="st0" width="42" height="18"/>
	<rect x="681.4" y="608.3" class="st1" width="42" height="18"/>
	<rect x="1106.4" y="332.3" class="st6" width="72" height="90"/>
	<rect x="1106.4" y="332.3" class="st1" width="72" height="90"/>
	<line class="st7" x1="1142.4" y1="329.3" x2="1142.4" y2="419.3"/>
	<line class="st1" x1="1110.4" y1="380.3" x2="1175.4" y2="380.3"/>
	<rect x="561.4" y="638.3" class="st0" width="42" height="24"/>
	<rect x="561.4" y="638.3" class="st1" width="42" height="24"/>
	<rect x="609.4" y="638.3" class="st0" width="60" height="24"/>
	<rect x="609.4" y="638.3" class="st1" width="60" height="24"/>
	<rect x="681.4" y="638.3" class="st0" width="42" height="24"/>
	<rect x="681.4" y="638.3" class="st1" width="42" height="24"/>
	<rect x="561.4" y="686.3" class="st0" width="42" height="12"/>
	<rect x="561.4" y="686.3" class="st1" width="42" height="12"/>
	<rect x="609.4" y="686.3" class="st0" width="60" height="12"/>
	<rect x="609.4" y="686.3" class="st1" width="60" height="12"/>
	<rect x="681.4" y="686.3" class="st0" width="42" height="12"/>
	<rect x="681.4" y="686.3" class="st1" width="42" height="12"/>
	<rect x="1080.4" y="570.3" class="st10" width="20" height="66"/>
	<rect x="1080.4" y="647.3" class="st10" width="20" height="40"/>
	<rect x="1206.4" y="570.3" class="st10" width="20" height="66"/>
	<rect x="1206.4" y="647.3" class="st10" width="20" height="40"/>
	<rect x="609.4" y="362.3" class="st6" width="36" height="48"/>
	<rect x="609.4" y="362.3" class="st1" width="36" height="48"/>
	<line class="st1" x1="642.4" y1="386.3" x2="612.4" y2="386.3"/>
	<path class="st6" d="M479.4,443.3c-0.2-9-7.9-11.8-17.9-11.9c-2.6-2.8-7-10.3-24.7-10.3c-2.8-4.5-8.9-8.6-16.1-8.6
		c-2.5,0-4.9-0.1-7,0.6c-2.1-9.2-10.8-16.4-21.3-16.4c-8.9,0-16.5,4.9-19.9,12.1c-0.3,0-0.6-0.1-0.9-0.1c-4.1,0-7.7,3.2-9.6,7.9
		c-12.3,0-14.3,9.8-14.8,13.4c-12,0.6-20.8,5.3-20.8,13.3H479.4z"/>
	<path class="st6" d="M1415.8,354.8c0.3-0.5,0.4-1,0.4-1.5c0-3.3-5.5-6-12.3-6c-3.1,0-5.8,0.6-8,1.5c-2.1-4.6-7.6-7.9-14.2-7.9
		c-2.5,0-4.9,0.5-7,1.4c-1.3-4-6.5-6.9-12.7-6.9c-7.2,0-13,3.9-13,8.8c0,0.1,0,0.2,0,0.4c-2.8,1-5.2,2.5-6.9,4.3
		c-1.7-0.9-4.1-1.5-6.5-1.5c-5.6,0-10.4,3.1-10.4,6.9l0,0c-18,0.3-25,2.3-25,4.6l127,0.8C1427.4,357.5,1422.8,355.8,1415.8,354.8"/>
	<path class="st6" d="M1123.7,101.3c0,0,9.9-13.3,22.3-13.4c3.3-3.6,11.4-10.5,21-10.5c3.5,0,6.8-1.8,9.7-1.3
		c3.5-5.6,11.1-10.5,20-10.5c3.1,0,6.1-0.1,8.7,0.8c2.6-11.5,13.5-20.4,26.5-20.4c11.1,0,20.6,6.1,24.8,15c0.4,0,0.8-0.2,1.2-0.2
		c5.1,0,9.6,4,12,9.9c1.9-0.9,4.1-1.5,6.5-1.5c6.2,0,11.2,12.3,11.9,16.8c14.9,0.8,25.9,15.2,25.9,15.2h-190.5V101.3z"/>
	<path class="st6" d="M1017.7,19.5c0.3-0.5,0.4-1,0.4-1.5c0-3.3-5.5-6-12.3-6c-3.1,0-5.8,0.6-8,1.5c-2.1-4.6-7.6-7.9-14.2-7.9
		c-2.5,0-4.9,0.5-7,1.4c-1.1-4-6.3-7-12.6-7c-7.2,0-13,3.9-13,8.8c0,0.1,0,0.2,0,0.4c-2.8,1-5.2,2.5-6.9,4.3
		c-1.7-0.9-5.5-1.5-7.9-1.5c-5.6,0-11.8,3.1-11.8,6.9l0,0c-12,0.3-23.6,2.3-23.6,4.6l127.7,0.8C1028.5,22.2,1024.6,20.4,1017.7,19.5
		"/>
	<rect x="556.4" y="322.3" class="st0" width="245" height="19"/>
	<rect x="555.9" y="321.8" class="st11" width="246" height="19"/>
	<path class="st0" d="M786.4,351.8c-0.4,0,0.5-0.1,0.1-0.3c-0.9-0.5-0.1-1.4-0.1-2.4v-14.5c0-0.9-0.9-1.7-0.2-2.2l252.3-173.1
		c0.5-0.3,0.7-0.5,1.2-0.5s0.9,0.1,1.3,0.4l94.2,62c0.8,0.5,1.2,1.3,1.2,2.2s-0.4,1.7-1.2,2.3l-12,8.6c-0.5,0.3-1,0.5-1.6,0.5
		c-0.5,0-1-0.1-1.5-0.4l-81-52.5L788,351.4C787.5,351.7,787,351.8,786.4,351.8"/>
	<path class="st4" d="M1039.4,161.4l94.3,62l-12,8.6l-82.5-53.5L786.4,349.1v-14.5L1039.4,161.4 M1039.4,156c-1.1,0-2.2,0.3-3.1,1
		L783.1,330c-1.5,1-2.6,2.7-2.6,4.5V349c0,2,1.4,3.9,3.2,4.8c0.8,0.4,1.8,0.6,2.7,0.6c1.1,0,2.2-0.3,3.1-0.9L1039.2,185l79.5,51.5
		c0.9,0.6,1.9,0.9,3,0.9s2.2-0.3,3.2-1l12-8.6c1.5-1,2.3-2.7,2.3-4.5s-1-3.5-2.5-4.4l-94.3-62C1041.5,156.3,1040.4,156,1039.4,156"
		/>
	<path class="st0" d="M1023.6,320.9c-0.4,0-1.1-0.1-1.5-0.3c-0.9-0.5-1.7-1.4-1.7-2.4v-16.4c0-0.9,0.7-1.7,1.4-2.2l127.8-90.6
		c0.5-0.3,1.1-0.5,1.6-0.5c0.6,0,1.2,0.2,1.6,0.5l124.3,90.2c0.7,0.5,0.3,1.3,0.3,2.2v13.8c0,1,0.3,1.9-0.6,2.4
		c-0.4,0.2-0.4,0.3-0.8,0.3c-0.5,0-0.9-0.2-1.4-0.5L1150,229.3l-124.8,91.1C1024.7,320.7,1024.2,320.9,1023.6,320.9"/>
	<path class="st4" d="M1153.2,211.2l124.3,90.2v13.8L1152,225.9l-125.6,92.2v-16.4L1153.2,211.2 M1151.3,205.8c-1.1,0-2.2,0.3-3.2,1
		l-126.5,90.6c-1.4,1-1.2,2.7-1.2,4.4v16.4c0,2.1,0,3.9,1.9,4.9c0.8,0.4,1.1,0.6,1.9,0.6c1.1,0,2-0.4,2.9-1l123.2-89.9l123.1,87.1
		c0.9,0.7,2,1,3.1,1c0.9,0,2.5-0.2,3.3-0.6c1.8-0.9,3.7-2.8,3.7-4.8v-13.8c0-1.8-1.6-3.4-3-4.4L1155,207.1
		C1153.9,206.1,1152.4,205.8,1151.3,205.8"/>
	<polygon class="st0" points="501.4,540.8 646.7,456.6 796.9,548.3 1304.4,548.3 1304.4,530.9 795.5,527.7 646,435.4 501.4,520.1 	
		"/>
	<polygon class="st1" points="501.4,540.8 646.7,456.6 796.9,548.3 1304.4,548.3 1304.4,530.9 795.5,527.7 646,435.4 501.4,520.1 	
		"/>
	<line class="st8" x1="669.4" y1="695.3" x2="669.4" y2="667.3"/>
	<line class="st12" x1="669.4" y1="695.3" x2="669.4" y2="667.3"/>
	<line class="st8" x1="1605.4" y1="518.3" x2="1605.4" y2="713.3"/>
	<line class="st1" x1="1605.4" y1="518.3" x2="1605.4" y2="713.3"/>
	<line class="st8" x1="1544.4" y1="553.3" x2="1544.4" y2="713.3"/>
	<line class="st1" x1="1544.4" y1="553.3" x2="1544.4" y2="713.3"/>
	<line class="st13" x1="120.4" y1="779.8" x2="1746.4" y2="779.8"/>
	<path class="st14" d="M1121.3,551.3c0,0-13.1-36.2-59.8-36.2c-102.7,0-128.2,290.9-259.7,91.5"/>
	<g>
		<ellipse class="st15" cx="598.7" cy="718.2" rx="35.4" ry="46.4"/>
		<ellipse class="st15" cx="318.6" cy="718.2" rx="35.4" ry="46.4"/>
		<g>
			<path d="M324.3,720.3l-76.1-12.8l-17.4-79v-0.2c-2.6-14.5,3.6-24.8,17.7-29.8l95.4-31.3c5.2-1.7,9.8-4.9,13.6-9.5
				c3.8-4.6,8.3-10.5,13.1-16.7c10.4-13.5,22.1-28.6,30.6-36.4c8.2-7.6,20-12.5,51.1-12.5H662c23.1,0,43.7,11.2,55.1,30.2l40.2,66
				l50.2,18.7l0.9,2.7c3.3,9.6,1.8,33.6-0.7,52.9c-1.2,9.5-5.8,41.6-13.5,52.3c-2.9,4.1-6.1,5.2-8.3,5.2H324.3V720.3z"/>
			<path d="M662,498.3c20.5,0,39.4,9.8,50,27.3l41.3,67.8l49.5,18.6c5.8,16.8-5.4,102.2-16.8,102.2H324.8l-71.6-12l-16.5-74.9
				c-1.8-10.2,1.3-18.7,13.8-23.1l95.3-31.2c6.5-2.1,12-6.1,16.3-11.4c12.2-14.9,31.3-41.5,43.1-52.5c7.1-6.5,17.5-10.9,47-10.9
				h210.1 M662,486.3H452.3c-28.6,0-44.1,3.9-55.2,14.1c-8.9,8.2-20.3,22.9-31.3,37.2c-4.7,6.1-9.2,11.8-13,16.3
				c-3.1,3.7-6.6,6.4-10.7,7.4l0,0v0.2l-95.3,31.3l-0.1,0.1l-0.1,0.1c-16.8,6-24.7,19.3-21.6,36.5v0.2l0.1,0.2l16.5,74.8l1.8,8
				l8.1,1.3l71.6,12l1,0.4h1H786c2.9,0,8.6-1.2,13.2-7.7c7.9-11.1,12.5-39.2,14.5-54.9c1.6-12.4,4.9-42.8,0.4-55.7l-1.8-5.4l-5.3-2
				l-45.6-17l-39.2-64.2C709.7,498.6,687.1,486.3,662,486.3L662,486.3z"/>
		</g>
		<path class="st16" d="M808.8,611.9l-49.5-18.4L718,528.2c-15.5-23.8-29.5-30.8-50-30.8H529.2c-12.4,0-24.1,0.9-31.6,10.8
			l-38.4,54.3c-4.8,6.3-11.5,9.7-19.2,11.8c0,0-82.2,22.1-109.3,30.6c-14.1,4.5-20.1,12.8-17.9,24.6c4,21.2,16.5,84.5,16.5,84.5
			l462.7-0.6C803.4,713.4,814.6,628.7,808.8,611.9"/>
		<ellipse class="st17" cx="416.9" cy="724.2" rx="39.6" ry="46.4"/>
		<ellipse class="st17" cx="697" cy="724.2" rx="39.6" ry="46.4"/>
		<path class="st18" d="M674.7,520.3h-56.4c-2.7,0-4.8,2.3-4.8,5v47.9c0,5.1,4,9.1,9,9.1h96.8c2.2,0,3.6-3.5,2.5-5.4L697,532.6
			C692.6,524.4,684,520.3,674.7,520.3z"/>
		<path class="st18" d="M535.8,520.3c-10.3,0-14,1.4-18.3,6.9l-37.7,48.5c-2,2.6-0.1,6.6,3.3,6.6h109.7c4.8,0,8.7-4.6,8.7-9.2v-46.7
			c0-3.3-2.5-6.1-5.8-6.1H535.8z"/>
		<path class="st0" d="M365.4,561.6c10.3-0.1,40.4,0.4,72.6,6.3c4.5,0.8,9.2-0.8,12.1-4.4l38.3-47.6c2.8-3.5,0.9-8.7-3.6-9.5
			c-14.9-2.5-49.8-6.3-70-2.7c-4.9,0.9-9.2,3.5-12.4,7.3l-38.8,46.3C362.1,559.1,363.2,561.6,365.4,561.6"/>
		<path class="st0" d="M312.4,641.8c0,8.6-4.9,15.5-10.9,15.5s-10.9-7-10.9-15.5c0-8.6,4.9-15.5,10.9-15.5S312.4,633.2,312.4,641.8"
			/>
		<path class="st0" d="M258.2,638.2c0,8.6-4.9,15.5-10.9,15.5s-10.9-7-10.9-15.5c0-8.6,4.9-15.5,10.9-15.5
			C253.3,622.7,258.2,629.7,258.2,638.2"/>
	</g>
	<path class="st19" d="M758.6,632.1c0,8.2-4,14.9-8.9,14.9s-8.9-6.7-8.9-14.9s4-14.9,8.9-14.9C754.7,617.3,758.6,623.9,758.6,632.1"
		/>
	<ellipse class="st20" cx="749.6" cy="632.1" rx="8.9" ry="14.9"/>
	<line class="st21" x1="750.3" y1="631.7" x2="793.2" y2="615.5"/>
	<path class="st21" d="M816.5,631.7c0,0-32.5,30.9-52.4,0.5"/>
	<line class="st8" x1="730" y1="492" x2="774.5" y2="484.2"/>
	<g>
		<path class="st22" d="M894,556.2l32.1,33.6l-14.4,29.9l3.9,10.4l26.2-34.4c2.7-4.8,2.3-10.5-1.1-14.9l-36.9-44L894,556.2z"/>
		<path class="st23" d="M874.9,519.3l-3.5-19.5l-30.3,8l3.3,10.6c0.1,0.4,0.3,0.8,0.4,1.2l4.4,10.4c0.8,1.9,2.9,2.9,4.9,2.3l5-1.4
			l1.2,8.8l10.7-0.1l10.6-4.3L874.9,519.3z"/>
		<path class="st24" d="M874,502.5l-33.9,5.9l-1.1-6.2c-1.4-8.2,4.1-15.9,12.2-17.3l4.4-0.8c8.2-1.4,15.9,4.1,17.3,12.2L874,502.5z"
			/>
		<line class="st25" x1="816.5" y1="512.4" x2="853.9" y2="505.9"/>
		<path class="st26" d="M881.9,786.8h52.9l-14.7-69c0,0,1.6-38.8,1.3-51.8c-0.2-7-2.2-28-2.2-28l-1.9-22.4
			c1-22.7,0.7-72.8-19.9-84.3c-9.6-5.4-22.3-0.1-30.6,2.8c-3.8,1.3-17.4,8.9-19.8,11.6c-8.8,9.8-29.2,43.9-29.2,43.9L791.3,604
			c0,0-11.5,6.1-13.4,9.7c-1.5,2.7-3.1,13.9-0.4,17.4c2.5,3.2,13.5,7,15.3,5.4c1.6-1.3-0.8-10.8-0.8-10.8s5.1-5.5,5.3-7.8
			c0-0.5-1.5-3.1-1.5-3.1s27.7-3.4,35.2-8.4c6.7-4.4,19-25.7,19-25.7l11.9,47.6l-0.5,0.1l-4.2,18.1l0.3,0.1l-18.4,70l5,50l-18.1,4.6
			c-3.6,0.9-6.4,3.6-7.5,7.2l-2.6,8.9l54-0.2l-5.9-70.5l22.2-61.3l3.1,0.9l6.5,64.8l8.7,47.1c0,0-9.4,1.9-12.4,2.9
			C883.9,773.7,881.9,786.8,881.9,786.8z"/>
		<path d="M844.9,713.4c0,0-4.8,54.6,23.4,54.8c3.4,0-26.6,0.8-26.6,0.8l-2.6-52.3l12.1-60.6l9.4-40.4l-12.1-32.9l2.5-7.5
			c0,0,7.8,34.7,27.8,45.4c3.2,1.7-7.6,3.3-7.6,3.3"/>
		<path class="st27" d="M898.3,566.5c-2-4.2-5.1-7.5-8.2-10.9l-0.6-0.7l-11,2.8l1.8,7.2l9.5-2.4c0.4-0.1,0.8,0.2,0.9,0.5l0.8,3.2
			c0.1,0.4-0.2,0.8-0.5,0.9l-9.5,2.4l2.4,9.7c0.1,0.4-0.2,0.8-0.5,0.9l-3.5,0.9c-0.4,0.1-0.8-0.2-0.9-0.5l-4.7-18.8l-0.2,0.9
			c-0.9,3.9-1.6,7.6-1.2,11.4c0.8,9.4,11,15.3,19.5,11.1C899.2,581.8,901.8,573.7,898.3,566.5"/>
		<path class="st27" d="M885.8,551L885.8,551l-6.3-6.2c-0.1-0.1-0.4-0.1-0.4,0.1c-0.8,2.9-1.7,5.5-2.5,8.3l-0.1,0.2L885.8,551z"/>
		<path class="st28" d="M903.6,765.2c0,0,5.9,7,27.1,2.8"/>
		<path class="st29" d="M917.3,610.7c0,0-14.7,14-46.2,11.6"/>
		<path class="st30" d="M842.2,765.2c0,0,5.9,7,27.1,2.8"/>
		<path d="M895.1,655.2c0,0,6,99.6,26.4,113.8l-17.2-0.7l-9.8-56.6l-9.9-59.4L895.1,655.2z"/>
	</g>
	<g>
		<path d="M1691.9,708.7c0,34.4-21.6,62.2-48.2,62.2s-48.2-27.9-48.2-62.2c0-34.4,21.6-62.2,48.2-62.2S1691.9,674.3,1691.9,708.7"/>
		<ellipse class="st31" cx="1643.7" cy="708.7" rx="48.2" ry="62.2"/>
		<path d="M1334.3,708.7c0,34.4-21.6,62.2-48.2,62.2s-48.2-27.9-48.2-62.2c0-34.4,21.6-62.2,48.2-62.2S1334.3,674.3,1334.3,708.7"/>
		<ellipse class="st31" cx="1286.2" cy="708.7" rx="48.2" ry="62.2"/>
		<path class="st32" d="M1763.3,673.4L1750,669l6.8-88.6c0.6-5.6-2.5-11.6-7.8-13.8l-109-27.9c-6.2-1.9-11.6-6.1-15-11.7l-26.3-38
			c-21.1-37.1-38.3-49.6-85-49.6h-171.3c-9,0-16.3,10-16.3,18.9l-9.2,94.1h-274.4c-9.6,0-17.2,8.2-17.2,17.8v100.2
			c0,23.8,19.4,43,43.1,43h675.5c9.6,0,17.4-7.3,18-16.9L1763.3,673.4z"/>
		<path class="st33" d="M1022.4,670.4c0,23.8,19,43,42.8,43h557.7l4.6-113.7c0.5-13-2.6-20.9-19.6-25.6l-72.4-17.1
			c-5.6-1.2-10.3-5.3-13.2-10.2c-9.4-16-31-51.7-40.4-65.6c-20.9-30.7-44.9-41.8-75.9-41.8h-66.8c-9,0-16.3,10-16.3,18.9l-9.2,94.1
			h-274.4c-9.6,0-16.9,8.2-16.9,17.8V670.4z"/>
		<path class="st34" d="M1624.6,664l2.9-64.2c0.5-13-2.6-20.9-19.6-25.6l-72.4-17.1c-5.6-1.2-10.3-5.3-13.2-10.2
			c-9.4-16-31-51.7-40.4-65.6c-20.9-30.7-44.9-41.9-75.9-41.9h-66.8c-9,0-16.3,10-16.3,18.9l-9.2,94.1h-274.4
			c-9.6,0-16.9,8.2-16.9,17.8v68.2h-14.1c-6.6,0-11.9,5.7-11.9,12.3V671c0,6.6,5.3,12.3,11.9,12.3h15.6c5.4,17,21.9,30,41.3,30H1620
			c9.6,0,17.5-7.4,18-17l1.4-29.7L1624.6,664z"/>
		<path class="st35" d="M1204.4,708.7c0,34.4-21.6,62.2-48.2,62.2S1108,743,1108,708.7c0-34.4,21.6-62.2,48.2-62.2
			S1204.4,674.3,1204.4,708.7"/>
		<ellipse class="st31" cx="1156.2" cy="708.7" rx="48.2" ry="62.2"/>
		<path class="st35" d="M1553.8,708.7c0,34.4-21.6,62.2-48.2,62.2s-48.2-27.9-48.2-62.2c0-34.4,21.6-62.2,48.2-62.2
			S1553.8,674.3,1553.8,708.7"/>
		<ellipse class="st31" cx="1505.6" cy="708.7" rx="48.2" ry="62.2"/>
		<path class="st0" d="M1613.8,522.3c3,0,4.8-3.3,3-5.7l-42.3-57.1c-3.3-4.5-8.6-7.1-14.2-7.1H1475c-2.3,0-3.4,2.7-1.9,4.4
			c20.9,22.1,36.2,51.1,41.4,61.7c1.2,2.5,3.8,3.9,6.6,3.9L1613.8,522.3L1613.8,522.3z"/>
		<path class="st36" d="M1653.4,630.3h-44.6c-2.8,0-1.2-41,1.5-41h44.3c2.8,0,1.2,41-1.5,41"/>
		<path class="st27" d="M1101,620.1c-1.7-8.3-5.7-15.8-9.8-23.1l-0.8-1.6h-20.9v14h18.1c0.7,0,1.9,0.6,1.9,1.3v6
			c0,0.7-1.1,1.7-1.9,1.7h-18.1v18.1c0,0.7-0.5,0.9-1.2,0.9h-6.7c-0.8,0-1.1-0.2-1.1-0.9v-35.6l-1,1.5c-3.3,6.5-6.3,12.8-7.4,19.8
			c-2.8,17.2,12.8,32.1,29.8,28.4C1095.7,647.6,1104,634.4,1101,620.1"/>
		<path class="st27" d="M1085.5,587.3l-0.2-0.6l-8.2-13.8c-0.2-0.3-0.7-0.4-0.8,0c-2.8,4.7-5.5,9.2-8.2,13.9l-0.2,0.5L1085.5,587.3
			L1085.5,587.3z"/>
		<path class="st27" d="M1146.4,579.6c0-0.5,0.2-1.3,0.6-1.3h0.7c0.3,0,0.5,0.5,0.8,0.7l18.7,20.3h0.2v-19.2c0-0.5,0.2-0.8,0.7-0.8
			h4.2c0.5,0,1,0.3,1,0.8V611c0,0.5-0.6,0.4-1,0.4h-0.6c-0.3,0-0.5-0.1-0.8-0.3l-18.8-20.7h0.2v20.1c0,0.5-0.7,0.9-1.2,0.9h-4.2
			c-0.5,0-0.6-0.4-0.6-0.9v-30.9H1146.4z"/>
		<path class="st27" d="M1181.4,580.1c0-0.5,0-0.8,0.5-0.8h18.6c0.5,0,0.9,0.3,0.9,0.8v3.8c0,0.5-0.4,0.4-0.9,0.4h-13.1v8h10.9
			c0.5,0,1.1,0.3,1.1,0.8v3.8c0,0.5-0.7,0.4-1.1,0.4h-10.9v9h13.1c0.5,0,0.9-0.1,0.9,0.4v3.8c0,0.5-0.4,0.9-0.9,0.9h-18.6
			c-0.5,0-0.5-0.4-0.5-0.9V580.1z"/>
		<path class="st27" d="M1203.6,580.5c-0.3-0.6,0.1-1.2,0.8-1.2h4.7c0.4,0,0.7,0.2,0.8,0.4l8.8,19.6h0.2l8.8-19.6
			c0.1-0.2,0.4-0.4,0.8-0.4h4.7c0.7,0,1.1,0.6,0.8,1.2l-14.2,30.6c-0.1,0.3-0.4,0.3-0.8,0.3h-0.5c-0.4,0-0.6,0-0.8-0.3L1203.6,580.5
			z"/>
		<path class="st27" d="M1237.4,580.1c0-0.5,0.8-0.8,1.3-0.8h18.6c0.5,0,1,0.3,1,0.8v3.8c0,0.5-0.5,0.4-1,0.4h-14v8h11.7
			c0.5,0,1.3,0.3,1.3,0.8v3.8c0,0.5-0.8,0.4-1.3,0.4h-11.7v9h14c0.5,0,1-0.1,1,0.4v3.8c0,0.5-0.5,0.9-1,0.9h-18.6
			c-0.5,0-1.3-0.4-1.3-0.9V580.1z"/>
		<path class="st27" d="M1264.4,580.1c0-0.5,0.2-0.8,0.7-0.8h13.1c5.5,0,10,4.4,10,9.8c0,4.2-2.8,7.6-6.8,9.2l6.3,11.6
			c0.3,0.6,0,1.3-0.8,1.3h-4.8c-0.4,0-0.6-0.5-0.7-0.6l-6.1-12.4h-4.9v12.1c0,0.5-0.6,0.9-1.1,0.9h-4.2c-0.5,0-0.7-0.4-0.7-0.9
			V580.1z M1277.7,594.3c2.4,0,4.5-2.6,4.5-5.1c0-2.4-2.1-4.9-4.5-4.9h-7.3v10H1277.7z"/>
		<path class="st27" d="M1304.2,608.2c-0.5-0.4-0.6-0.6-0.2-1.4l1.6-2.8c0.4-0.6,1.1-0.6,1.6-0.3c1.9,1.4,3.9,2.8,6.9,2.8
			c2.4,0,4.2-1.6,4.2-3.5c0-2.3-2-3.9-5.8-5.5c-4.3-1.7-8.6-4.5-8.6-9.9c0-4.1,3-8.8,10.3-8.8c4.7,0,8.2,2.4,9.2,3.1
			c0.5,0.3,0.6,1.1,0.3,1.5l-1.7,2.6c-0.4,0.5-1.1,0.9-1.6,0.5c-2-1.2-3.8-2.5-6.4-2.5s-4,1.5-4,3.2c0,2.2,1.7,3.6,5.4,5.1
			c4.4,1.8,9.6,4.4,9.6,10.3c0,4.7-4.1,9.1-10.5,9.1C1308.5,611.8,1305.5,609.4,1304.2,608.2"/>
		<path class="st27" d="M1335.4,584.3h-6.8c-0.5,0-1.2,0-1.2-0.4v-3.8c0-0.5,0.7-0.8,1.2-0.8h20c0.5,0,0.8,0.3,0.8,0.8v3.8
			c0,0.5-0.3,0.4-0.8,0.4h-7.2v26.1c0,0.5-0.2,0.9-0.7,0.9h-4.3c-0.5,0-1.1-0.4-1.1-0.9L1335.4,584.3L1335.4,584.3z"/>
		<path class="st27" d="M1368.3,578.8c9.2,0,16.5,7.4,16.5,16.5c0,9.2-7.3,16.4-16.5,16.4s-16.4-7.3-16.4-16.4
			C1351.9,586.2,1359.2,578.8,1368.3,578.8 M1368.3,605.8c5.8,0,10.5-4.7,10.5-10.5s-4.8-10.6-10.5-10.6c-5.8,0-10.5,4.8-10.5,10.6
			S1362.6,605.8,1368.3,605.8"/>
		<path class="st27" d="M1390.4,580.1c0-0.5,0.7-0.8,1.2-0.8h10.8c5.6,0,10.3,4.4,10.3,9.9c0,5.7-4.6,10.1-10.2,10.1h-6v11.1
			c0,0.5-0.2,0.9-0.6,0.9h-4.2c-0.5,0-1.2-0.4-1.2-0.9v-30.3H1390.4z M1402.2,594.3c2.6,0,4.5-2,4.5-4.7c0-2.5-2-4.3-4.5-4.3h-5.8v9
			H1402.2z"/>
		<path class="st27" d="M1428.4,580.1c0-0.5,0.6-0.8,1.1-0.8h18.6c0.5,0,1.2,0.3,1.2,0.8v3.8c0,0.5-0.7,0.4-1.2,0.4h-13.8v9h11.5
			c0.5,0,0.5,0.4,0.5,0.9v3.8c0,0.5,0,1.3-0.5,1.3h-11.5v11.1c0,0.5-0.2,0.9-0.6,0.9h-4.2c-0.5,0-1.1-0.4-1.1-0.9V580.1z"/>
		<path class="st27" d="M1468.8,578.8c9.2,0,16.5,7.4,16.5,16.5c0,9.2-7.3,16.4-16.5,16.4s-16.4-7.3-16.4-16.4
			C1452.3,586.2,1459.6,578.8,1468.8,578.8 M1468.8,605.8c5.8,0,10.5-4.7,10.5-10.5s-4.8-10.6-10.5-10.6c-5.8,0-10.5,4.8-10.5,10.6
			S1463,605.8,1468.8,605.8"/>
		<path class="st27" d="M1491.4,580.1c0-0.5,0.1-0.8,0.6-0.8h13.1c5.5,0,10,4.4,10,9.8c0,4.2-2.8,7.6-6.8,9.2l6.3,11.6
			c0.3,0.6,0,1.3-0.8,1.3h-4.8c-0.4,0-0.6-0.5-0.7-0.6l-6.1-12.4h-4.8v12.1c0,0.5-0.7,0.9-1.2,0.9h-4.2c-0.5,0-0.6-0.4-0.6-0.9
			V580.1z M1504.7,594.3c2.4,0,4.5-2.6,4.5-5.1c0-2.4-2.1-4.9-4.5-4.9h-7.2v10H1504.7z"/>
		<path class="st27" d="M1227.7,624.6c4.1,0,8.1,1.6,11.2,4.3c0.4,0.4,0.4,0.9,0,1.3l-2.8,3c-0.4,0.4-0.8,0.4-1.2,0
			c-2-1.7-4.4-2.7-6.9-2.7c-5.7,0-10.3,4.9-10.3,10.6c0,5.7,4.5,10.5,10.3,10.5c2.6,0,4.4-0.8,5.4-1.1v-4.1h-3.7
			c-0.5,0-1.3-0.1-1.3-0.6v-3.6c0-0.5,0.8-0.8,1.3-0.8h8.8c0.5,0,0.9,0.3,0.9,0.8v11.7c0,0.4-0.2,0.6-0.4,0.7c0,0-4.7,3-11.4,3
			c-9.1,0-16.5-7.2-16.5-16.4C1211.2,632,1218.6,624.6,1227.7,624.6"/>
		<path class="st27" d="M1242.2,656l14.2-31c0.1-0.3,0.4-0.7,0.8-0.7h0.5c0.5,0,0.6,0.4,0.8,0.6l14.1,31c0.3,0.6-0.1,1.4-0.8,1.4h-4
			c-0.7,0-1-0.3-1.3-1l-2.2-5h-13.7l-2.2,5c-0.2,0.5-0.6,1-1.3,1h-4C1242.3,657.3,1241.9,656.6,1242.2,656 M1262,646.3l-4.6-10h-0.1
			l-4.5,10H1262z"/>
		<path class="st27" d="M1275.3,654c-0.5-0.4-0.6-0.6-0.2-1.4l1.6-2.8c0.4-0.6,1.1-0.6,1.6-0.3c1.9,1.4,3.9,2.8,6.9,2.8
			c2.4,0,4.2-1.6,4.2-3.5c0-2.3-2-3.9-5.8-5.5c-4.3-1.7-8.6-4.5-8.6-9.9c0-4.1,3-8.8,10.3-8.8c4.7,0,8.2,2.4,9.2,3.1
			c0.5,0.3,0.6,1.1,0.3,1.5l-1.7,2.6c-0.4,0.5-1.1,0.9-1.6,0.5c-2-1.2-3.8-2.5-6.4-2.5s-4,1.5-4,3.2c0,2.2,1.7,3.6,5.4,5.1
			c4.4,1.8,9.6,4.4,9.6,10.3c0,4.7-4.1,9.1-10.5,9.1C1279.6,657.6,1276.6,655.2,1275.3,654"/>
		<path class="st27" d="M1308.8,656l14.2-31c0.1-0.3,0.4-0.7,0.8-0.7h0.5c0.5,0,0.6,0.4,0.8,0.6l14.1,31c0.3,0.6-0.1,1.4-0.8,1.4h-4
			c-0.7,0-1-0.3-1.3-1l-2.2-5h-13.7l-2.2,5c-0.2,0.5-0.6,1-1.3,1h-4C1308.8,657.3,1308.5,656.6,1308.8,656 M1328.5,646.3l-4.6-10
			h-0.1l-4.5,10H1328.5z"/>
		<path class="st27" d="M1356.9,624.6c4.1,0,8.1,1.6,11.2,4.3c0.4,0.4,0.4,0.9,0,1.3l-2.8,3c-0.4,0.4-0.8,0.4-1.2,0
			c-2-1.7-4.4-2.7-6.9-2.7c-5.7,0-10.3,4.9-10.3,10.6c0,5.7,4.4,10.5,10.2,10.5c2.6,0,4.3-0.8,5.3-1.1v-4.1h-3.4
			c-0.5,0-0.6-0.1-0.6-0.6v-3.6c0-0.5,0.1-0.8,0.6-0.8h8.8c0.5,0,0.6,0.3,0.6,0.8v11.7c0,0.4-0.1,0.6-0.3,0.7c0,0-4.7,3-11.3,3
			c-9.1,0-16.4-7.2-16.4-16.4C1340.5,632,1347.8,624.6,1356.9,624.6"/>
		<path class="st27" d="M1371.5,656l14.2-31c0.1-0.3,0.4-0.7,0.8-0.7h0.5c0.5,0,0.6,0.4,0.8,0.6l14.1,31c0.3,0.6-0.1,1.4-0.8,1.4h-4
			c-0.7,0-1-0.3-1.3-1l-2.2-5h-13.7l-2.2,5c-0.2,0.5-0.6,1-1.3,1h-4C1371.5,657.3,1371.2,656.6,1371.5,656 M1391.2,646.3l-4.6-10
			h-0.1l-4.5,10H1391.2z"/>
		<path class="st27" d="M1405.4,626c0-0.5,0.8-0.6,1.3-0.6h4.3c0.5,0,0.5,0.1,0.5,0.6v30.3c0,0.5,0,1.1-0.5,1.1h-4.3
			c-0.5,0-1.3-0.6-1.3-1.1V626z"/>
		<path class="st27" d="M1419.4,625.4c0-0.5,0.6-1.1,1.1-1.1h0.7c0.3,0,0.5,0.5,0.8,0.7l18.7,20.3h-0.2V626c0-0.5,0.7-0.6,1.2-0.6
			h4.2c0.5,0,0.6,0.2,0.6,0.6v30.8c0,0.5-0.1,0.6-0.6,0.6h-0.6c-0.3,0-0.5-0.1-0.8-0.3l-18.8-20.7h-0.2v19.9c0,0.5-0.3,1.1-0.8,1.1
			h-4.2c-0.5,0-1.1-0.6-1.1-1.1L1419.4,625.4L1419.4,625.4z"/>
		<path class="st0" d="M1366.4,546.3h107.9c4.5,0,7.5-4.6,5.6-8.7l-16.4-34.7c-15.4-31.7-29.2-39.6-62.7-39.6h-28.6
			c-3.2,0-5.9,2.2-6.1,5.4l-6.3,71c-0.3,3.6,2.5,6.5,6.2,6.5"/>
		<path class="st37" d="M1352.8,546.3h120.7c5,0,8.4-4.6,6.2-8.7l-18.2-34.7c-17.2-31.7-32.5-39.6-69.9-39.6h-31.8
			c-3.6,0-6.6,2.2-6.9,5.4l-7,71C1345.6,543.4,1348.8,546.3,1352.8,546.3z"/>
		<path class="st36" d="M1767.4,630.3h-44.6c-2.8,0-1.2-41,1.5-41h44.3c2.8,0,1.2,41-1.5,41"/>
	</g>
</g>
</svg>
